<svg width="56" height="89" viewBox="0 0 56 89" fill="none" xmlns="http://www.w3.org/2000/svg">
<path d="M46.958 45.3828H7.55856V70.7701H46.958V45.3828Z" fill="black"/>
<path d="M31.8574 63.1641H21.216V72.2576H31.8574V63.1641Z" fill="#FCC3A2"/>
<path d="M29.6127 66.1906C30.4162 66.1906 31.1615 66.2806 31.8574 66.4372V63.1641H21.216V72.0273C22.367 68.7754 25.1628 66.1906 29.6127 66.1906Z" fill="#FCC3A2"/>
<path d="M31.0979 70.8837H26.538H21.9775C21.9775 70.8837 3.74343 69.8962 0.235596 89.0025H26.5375H52.8384C49.3325 69.8962 31.0979 70.8837 31.0979 70.8837Z" fill="#FCC3A2"/>
<path d="M48.4154 37.1207C48.4154 52.7591 39.3581 65.4362 26.5375 65.4362C13.7154 65.4362 4.65854 52.7591 4.65854 37.1207C4.65854 21.4818 13.7159 8.80469 26.5375 8.80469C39.3581 8.80469 48.4154 21.4823 48.4154 37.1207Z" fill="#FCC3A2"/>
<path d="M49.2459 39.9246C47.7116 39.6331 46.0958 41.3942 45.6368 43.8581C45.1778 46.322 46.0494 48.5557 47.5837 48.8472C49.1179 49.1387 50.7338 47.3776 51.1928 44.9137C51.6518 42.4498 50.7801 40.2161 49.2459 39.9246Z" fill="#FCC3A2"/>
<path d="M48.4022 42.3313C48.4022 42.3313 48.5044 42.3817 48.685 42.4464C48.7707 42.4795 48.8998 42.5013 48.9772 42.5922C49.0604 42.6787 49.1597 42.7143 49.2248 42.8388C49.3075 42.9337 49.3662 43.0503 49.4063 43.1922C49.4749 43.3073 49.4514 43.4946 49.4954 43.6399C49.4905 43.9775 49.4949 44.3476 49.3922 44.7203C49.329 45.0964 49.1984 45.4611 49.0628 45.7878C48.9238 46.1199 48.7511 46.3823 48.5759 46.5835C48.4824 46.6551 48.3924 46.7485 48.296 46.7896C48.2025 46.8049 48.0958 46.8775 48.0151 46.8464C47.8492 46.8246 47.7234 46.8153 47.7234 46.8153C47.7234 46.8153 47.7914 46.8928 47.9637 47.0243C48.0454 47.1044 48.1814 47.0989 48.3405 47.1404C48.4956 47.1617 48.6816 47.1147 48.8636 47.0456C49.2121 46.8815 49.5468 46.5751 49.7841 46.1975C50.0372 45.8248 50.2104 45.3796 50.3117 44.915C50.3582 44.6817 50.3856 44.4435 50.3846 44.2033C50.411 43.9686 50.3362 43.722 50.3092 43.4966C50.2251 43.2663 50.1781 43.0424 50.0225 42.8581C49.954 42.7657 49.8918 42.6737 49.8218 42.5962C49.7318 42.5344 49.6456 42.4746 49.5625 42.4177C49.4161 42.2883 49.2018 42.2818 49.0574 42.2512C48.9023 42.2117 48.7985 42.2527 48.7012 42.2645C48.5123 42.2986 48.4022 42.3313 48.4022 42.3313Z" fill="#D1D3D4"/>
<path d="M5.49002 48.8557C7.02427 48.5642 7.89593 46.3305 7.43692 43.8666C6.97791 41.4027 5.36206 39.6416 3.82781 39.9331C2.29356 40.2246 1.4219 42.4583 1.88091 44.9222C2.33992 47.3861 3.95577 49.1472 5.49002 48.8557Z" fill="#FCC3A2"/>
<path d="M4.67177 42.3313C4.67177 42.3313 4.56949 42.3817 4.3894 42.4464C4.30376 42.4795 4.17407 42.5013 4.09675 42.5922C4.01356 42.6787 3.91471 42.7143 3.84913 42.8388C3.76691 42.9337 3.70721 43.0503 3.66708 43.1922C3.59857 43.3073 3.62206 43.4946 3.57753 43.6399C3.58242 43.9775 3.57802 44.3476 3.68127 44.7203C3.7444 45.0964 3.87556 45.4611 4.01062 45.7878C4.1496 46.1199 4.32284 46.3823 4.49755 46.5835C4.59102 46.6551 4.68204 46.7485 4.77747 46.7896C4.87094 46.8049 4.97762 46.8775 5.05788 46.8464C5.22427 46.8246 5.35004 46.8153 5.35004 46.8153C5.35004 46.8153 5.2825 46.8928 5.10976 47.0243C5.02754 47.1044 4.89198 47.0989 4.73294 47.1404C4.57732 47.1617 4.39136 47.1147 4.20931 47.0456C3.86087 46.8815 3.52614 46.5751 3.28929 46.1975C3.03579 45.8248 2.86255 45.3796 2.76125 44.915C2.71476 44.6817 2.68736 44.4435 2.68833 44.2033C2.66191 43.9686 2.73727 43.722 2.7637 43.4966C2.84836 43.2663 2.89534 43.0424 3.05096 42.8581C3.11898 42.7657 3.18113 42.6737 3.25111 42.5962C3.34116 42.5344 3.42729 42.4746 3.51048 42.4177C3.65681 42.2883 3.87164 42.2818 4.01552 42.2512C4.17114 42.2117 4.27439 42.2527 4.37178 42.2645C4.56166 42.2986 4.67177 42.3313 4.67177 42.3313Z" fill="#D1D3D4"/>
<path d="M42.2008 33.7705C42.2008 33.7705 41.3204 28.005 33.8095 32.3234" stroke="#3C2415" stroke-width="2.2281" stroke-miterlimit="10" stroke-linecap="round"/>
<path d="M11.5298 33.7705C11.5298 33.7705 12.4102 28.005 19.9211 32.3234" stroke="#3C2415" stroke-width="2.2281" stroke-miterlimit="10" stroke-linecap="round"/>
<path d="M23.152 50.1884C23.5396 50.1963 23.9286 50.224 24.3089 50.2265C24.6886 50.2309 25.0703 50.2388 25.4447 50.2141C25.8196 50.1939 26.1905 50.1696 26.5492 50.1054C26.7313 50.0836 26.903 50.0298 27.0782 49.9952C27.2466 49.9443 27.4203 49.9072 27.5764 49.8385C27.7389 49.7822 27.8872 49.7046 28.0305 49.6265C28.1715 49.544 28.2982 49.4496 28.4147 49.3492C28.6476 49.1486 28.817 48.904 28.9266 48.6272C29.0411 48.3519 29.0744 48.0361 29.0812 47.7154C29.0812 47.5538 29.068 47.3897 29.0445 47.2266C29.0215 47.0714 28.9834 46.8846 28.9481 46.7704L28.9305 46.7126L28.9217 46.6464C28.8825 46.3449 28.8517 46.0425 28.8385 45.738C28.8268 45.5863 28.8316 45.4331 28.8292 45.2804C28.8312 45.1272 28.8214 44.9754 28.8336 44.8213C28.8473 44.5139 28.8728 44.2055 28.9188 43.8946C28.9711 43.5832 29.0245 43.2714 29.138 42.9531C29.3161 43.2393 29.4346 43.5323 29.552 43.8254C29.6631 44.119 29.7526 44.415 29.8314 44.7125C29.876 44.8603 29.8985 45.011 29.9332 45.1598C29.9636 45.3095 30.0008 45.4583 30.0213 45.609C30.0727 45.9095 30.107 46.2115 30.1329 46.5144L30.107 46.3909C30.1818 46.6484 30.2146 46.8431 30.2415 47.0714C30.2655 47.2928 30.2758 47.5162 30.268 47.7421C30.2503 48.1928 30.1559 48.6583 29.9474 49.0883C29.8461 49.3033 29.7164 49.5074 29.5642 49.6907C29.414 49.8761 29.2378 50.0347 29.0538 50.1766C28.8644 50.3105 28.6648 50.4197 28.4612 50.5097C28.2566 50.5937 28.0511 50.6688 27.8436 50.7162C27.4306 50.825 27.0166 50.8665 26.6114 50.8635C26.4088 50.865 26.2076 50.8615 26.0089 50.8433C25.8093 50.8344 25.6121 50.8106 25.4168 50.778C25.2206 50.7523 25.0273 50.7152 24.8354 50.6747C24.6431 50.6396 24.4518 50.5956 24.2633 50.5403C23.8821 50.4454 23.5185 50.3199 23.152 50.1884Z" fill="#CDA187"/>
<path d="M21.2767 54.3125C22.3656 56.6239 24.3113 58.1698 26.5375 58.1698C28.7631 58.1698 30.7074 56.6234 31.7968 54.3125H21.2767Z" fill="white"/>
<path d="M21.2767 54.3158L21.7524 55.0394C21.9193 55.2736 22.1086 55.4847 22.2819 55.7046C22.4595 55.921 22.6768 56.1064 22.8696 56.3065C23.0668 56.5037 23.3081 56.65 23.518 56.8274C23.7353 56.9974 23.9893 57.1096 24.2198 57.253C24.4591 57.3824 24.7229 57.4546 24.9671 57.5643C25.222 57.6454 25.4878 57.6859 25.7447 57.7506C26.0094 57.7734 26.2747 57.7778 26.5365 57.7946C26.7543 57.763 27.0919 57.7393 27.3518 57.6982C27.593 57.6172 27.8333 57.5658 28.0731 57.4744C28.308 57.3533 28.5561 57.2633 28.7798 57.1225C28.9961 56.9693 29.2339 56.8487 29.4346 56.6718C29.6293 56.4884 29.8486 56.3337 30.0252 56.1301C30.1975 55.9225 30.3918 55.7357 30.5474 55.5143C30.6967 55.2875 30.866 55.0759 31.0084 54.8442L31.4023 54.1266L31.7963 54.7567C30.9198 54.7552 30.0429 54.7399 29.1664 54.7181C28.2894 54.7048 27.413 54.6712 26.536 54.6405C25.659 54.6074 24.7826 54.5649 23.9061 54.513C23.0296 54.4611 22.1537 54.3999 21.2767 54.3158ZM21.2767 54.3158C22.1537 54.2318 23.0301 54.1705 23.9071 54.1186C24.784 54.0668 25.6605 54.0243 26.537 53.9911C27.4139 53.96 28.2904 53.9269 29.1674 53.9135C30.0443 53.8923 30.9208 53.877 31.7973 53.875H31.8173C32.0512 53.8745 32.2411 54.0658 32.2416 54.302C32.2421 54.3747 32.223 54.4448 32.1917 54.5051L31.7654 55.3077C31.6093 55.5672 31.4288 55.8138 31.256 56.0634C31.0769 56.309 30.8542 56.523 30.6546 56.7528C30.4505 56.9797 30.1965 57.16 29.969 57.3637C29.7355 57.5618 29.4566 57.7047 29.2016 57.8757C28.9359 58.0308 28.6374 58.1287 28.357 58.2542C28.0599 58.355 27.7355 58.4148 27.4276 58.4895C27.1218 58.5201 26.8874 58.5295 26.537 58.5517C26.2306 58.5147 25.9238 58.4865 25.6228 58.4371C25.3302 58.3462 25.0317 58.2755 24.7498 58.1638C24.4787 58.0269 24.1958 57.9112 23.9457 57.7447C23.7045 57.5638 23.4427 57.4131 23.2254 57.208C23.013 56.9984 22.781 56.8091 22.5975 56.5764C22.4184 56.3396 22.2187 56.1237 22.0617 55.8731C21.9129 55.6166 21.7519 55.3695 21.6207 55.1125L21.2767 54.3158Z" fill="#DA9285"/>
<path d="M15.1008 40.2869C16.344 40.2869 17.3519 39.1069 17.3519 37.6513C17.3519 36.1956 16.344 35.0156 15.1008 35.0156C13.8575 35.0156 12.8497 36.1956 12.8497 37.6513C12.8497 39.1069 13.8575 40.2869 15.1008 40.2869Z" fill="#3C2415"/>
<path d="M13.3664 37.6504C13.9459 37.6504 14.4157 37.176 14.4157 36.5908C14.4157 36.0056 13.9459 35.5312 13.3664 35.5312C12.787 35.5312 12.3172 36.0056 12.3172 36.5908C12.3172 37.176 12.787 37.6504 13.3664 37.6504Z" fill="white"/>
<path d="M13.8646 38.6302C14.1395 38.6302 14.3623 38.4052 14.3623 38.1276C14.3623 37.85 14.1395 37.625 13.8646 37.625C13.5898 37.625 13.3669 37.85 13.3669 38.1276C13.3669 38.4052 13.5898 38.6302 13.8646 38.6302Z" fill="white"/>
<path d="M37.3198 40.2869C38.5631 40.2869 39.5709 39.1069 39.5709 37.6513C39.5709 36.1956 38.5631 35.0156 37.3198 35.0156C36.0766 35.0156 35.0687 36.1956 35.0687 37.6513C35.0687 39.1069 36.0766 40.2869 37.3198 40.2869Z" fill="#3C2415"/>
<path d="M39.0542 37.6495C39.6334 37.6495 40.1029 37.1753 40.1029 36.5903C40.1029 36.0054 39.6334 35.5312 39.0542 35.5312C38.475 35.5312 38.0054 36.0054 38.0054 36.5903C38.0054 37.1753 38.475 37.6495 39.0542 37.6495Z" fill="white"/>
<path d="M38.556 38.6302C38.8309 38.6302 39.0537 38.4052 39.0537 38.1276C39.0537 37.85 38.8309 37.625 38.556 37.625C38.2811 37.625 38.0583 37.85 38.0583 38.1276C38.0583 38.4052 38.2811 38.6302 38.556 38.6302Z" fill="white"/>
<path d="M39.3375 72.2586C38.5379 71.9309 38.7547 72.0461 37.9996 71.8281C37.9996 71.8281 39.4648 85.1472 26.859 85.5426C26.7562 85.5426 26.6505 85.5455 26.5497 85.544C26.4484 85.5455 26.3432 85.5426 26.2404 85.5426C13.6351 85.1472 15.0998 71.8281 15.0998 71.8281C14.3447 72.0461 14.5615 71.9309 13.7619 72.2586C13.7619 72.2586 17.7424 82.1241 7.04865 89.0001H25.546H27.5524H46.0498C35.3574 82.1246 39.3375 72.2586 39.3375 72.2586Z" fill="#EC524F"/>
<path d="M5.35051 16.9219C-4.0112 35.0155 1.75851 61.6482 1.75851 61.6482C4.01697 76.2275 17.6123 70.8119 17.6123 70.8119C0.635889 54.3126 8.68755 24.7705 8.68755 24.7705L5.35051 16.9219Z" fill="#2D1307"/>
<path d="M8.68755 24.7757C8.68755 24.7757 12.3422 12.6437 18.6429 14.1264C18.6429 14.1264 18.959 7.27952 14.4475 8.80862C14.4475 8.80862 7.21894 10.2685 4.41141 18.8871L8.68755 24.7757Z" fill="#2D1307"/>
<path d="M49.9481 12.9688C59.3098 31.0624 55.0175 61.2371 55.0175 61.2371C53.9796 75.8575 35.238 70.7221 35.238 70.7221C52.2139 54.2228 44.1627 24.6806 44.1627 24.6806L49.9481 12.9688Z" fill="#2D1307"/>
<path d="M44.1627 24.6819C44.1627 24.6819 40.5081 12.55 34.2074 14.0326C34.2074 14.0326 33.8913 7.18577 38.4028 8.71487C38.4028 8.71487 45.6314 10.1748 48.4389 18.7934L44.1627 24.6819Z" fill="#2D1307"/>
<path d="M49.9481 12.9716L45.1518 29.5361C45.1518 29.5361 11.293 28.5269 15.1003 8.64077C15.1003 8.64077 15.1556 1.11043 24.6167 0.451643C24.6172 0.451643 39.5709 -3.66714 49.9481 12.9716Z" fill="#2D1307"/>
</svg>
