<svg width="60" height="83" viewBox="0 0 60 83" fill="none" xmlns="http://www.w3.org/2000/svg">
<path d="M34.6691 66.1094H30H25.3313C25.3313 66.1094 1.24361 69.6287 0 80.7449V83.0011H30H60V80.7449C58.7564 69.6287 34.6691 66.1094 34.6691 66.1094Z" fill="#FCC3A2"/>
<path d="M50.8613 35.9291C49.515 35.6574 48.0971 37.2983 47.6944 39.594C47.2916 41.8897 48.0566 43.9709 49.4029 44.2425C50.7492 44.5142 52.167 42.8733 52.5698 40.5776C52.9725 38.2819 52.2076 36.2007 50.8613 35.9291Z" fill="#FCC3A2"/>
<path d="M50.1211 38.1692C50.1211 38.1692 50.2104 38.2162 50.3689 38.277C50.444 38.3078 50.5578 38.3281 50.6257 38.4133C50.6987 38.4939 50.7858 38.5266 50.843 38.6427C50.9155 38.7311 50.9675 38.8402 51.0027 38.9719C51.0624 39.0788 51.0422 39.2542 51.0809 39.3892C51.0766 39.7042 51.0804 40.0486 50.9898 40.3959C50.9349 40.7463 50.8198 41.0867 50.7008 41.3906C50.5789 41.7001 50.4273 41.9451 50.2735 42.1321C50.1915 42.1988 50.1121 42.2859 50.0279 42.3241C49.9459 42.3388 49.8523 42.4056 49.7818 42.3771C49.6358 42.3563 49.5255 42.3476 49.5255 42.3476C49.5255 42.3476 49.5847 42.4194 49.7363 42.5419C49.808 42.6165 49.927 42.6115 50.067 42.6502C50.2031 42.67 50.3663 42.6258 50.5265 42.5613C50.8318 42.4084 51.1255 42.1229 51.3338 41.7715C51.5558 41.4242 51.7078 41.0093 51.7967 40.5764C51.8379 40.359 51.8611 40.1375 51.8611 39.9128C51.8839 39.6945 51.8182 39.4642 51.795 39.2542C51.7207 39.0392 51.6795 38.831 51.5429 38.6592C51.4828 38.5726 51.4287 38.4875 51.3673 38.4151C51.2883 38.3571 51.2123 38.3014 51.1393 38.2484C51.0109 38.1278 50.8223 38.1218 50.6961 38.0937C50.56 38.0569 50.4689 38.0955 50.3835 38.1061C50.2177 38.1388 50.1211 38.1692 50.1211 38.1692Z" fill="#D1D3D4"/>
<path d="M11.2516 44.2513C12.5979 43.9797 13.3628 41.8985 12.96 39.6028C12.5573 37.3071 11.1394 35.6662 9.79313 35.9379C8.44683 36.2095 7.68192 38.2907 8.08465 40.5864C8.48739 42.8821 9.90526 44.523 11.2516 44.2513Z" fill="#FCC3A2"/>
<path d="M10.5333 38.1692C10.5333 38.1692 10.444 38.2162 10.2856 38.277C10.21 38.3078 10.0966 38.3281 10.0288 38.4133C9.95576 38.4939 9.86858 38.5266 9.81104 38.6427C9.7389 38.7311 9.68737 38.8402 9.65172 38.9719C9.59161 39.0788 9.61222 39.2542 9.57314 39.3892C9.57743 39.7042 9.57357 40.0486 9.66418 40.3959C9.71914 40.7463 9.8338 41.0867 9.95275 41.3906C10.0747 41.7001 10.2263 41.9451 10.38 42.1321C10.462 42.1988 10.5415 42.2859 10.6252 42.3241C10.7077 42.3388 10.8013 42.4056 10.8717 42.3771C11.0173 42.3563 11.1281 42.3476 11.1281 42.3476C11.1281 42.3476 11.0688 42.4194 10.9168 42.5419C10.8455 42.6165 10.7261 42.6115 10.5862 42.6502C10.45 42.67 10.2868 42.6258 10.1271 42.5613C9.82135 42.4084 9.52805 42.1229 9.31935 41.7715C9.09734 41.4242 8.94532 41.0093 8.85643 40.5764C8.81521 40.359 8.79202 40.1375 8.79245 39.9128C8.76926 39.6945 8.83496 39.4642 8.85858 39.2542C8.93287 39.0392 8.97366 38.831 9.11065 38.6592C9.17077 38.5726 9.22488 38.4875 9.28628 38.4151C9.3653 38.3571 9.44088 38.3014 9.51431 38.2484C9.64271 38.1278 9.83079 38.1218 9.95747 38.0937C10.0936 38.0569 10.1846 38.0955 10.2697 38.1061C10.4371 38.1388 10.5333 38.1692 10.5333 38.1692Z" fill="#D1D3D4"/>
<path d="M34.6691 59.5H25.3313V67.9737H34.6691V59.5Z" fill="#FCC3A2"/>
<path d="M34.6691 60.3755V59.5H25.3313V66.0096C26.8819 62.4267 30.9039 60.515 34.6691 60.3755Z" fill="#FCC3A2"/>
<path d="M50.0588 33.1766C50.0588 48.1686 41.5816 60.3219 30.0082 60.3219C18.4335 60.3219 10.1795 47.7251 10.1795 32.7331C9.96908 12.8167 18.4339 6.03125 30.0082 6.03125C41.5816 6.03125 51.0774 12.1342 50.0588 33.1766Z" fill="#FCC3A2"/>
<path d="M39.431 67.0584C37.6322 70.6708 34.0714 73.1751 30.0459 73.1751C26.0132 73.1751 22.4477 70.6616 20.6514 67.0391C13.5848 68.6919 0.89449 72.7547 0 80.7467V83.0028H60V80.7467C59.1089 72.7855 46.5126 68.7232 39.431 67.0584Z" fill="#003A54"/>
<path d="M39.431 67.0584C37.6322 70.6708 34.0714 73.1751 30.0459 73.1751C26.0132 73.1751 22.4477 70.6616 20.6514 67.0391C19.6045 67.2841 18.433 67.5829 17.1963 67.9385C19.5001 73.0259 24.3887 76.6019 29.9386 76.6019C35.5001 76.6019 40.3968 73.0112 42.6942 67.9072C41.5296 67.5747 40.4251 67.2919 39.431 67.0584Z" fill="#00243B"/>
<path d="M16.0368 28.8505C16.0368 28.8505 18.5863 23.8423 23.4002 27.5021" stroke="#3C2415" stroke-width="2.2281" stroke-miterlimit="10" stroke-linecap="round"/>
<path d="M43.9623 28.8505C43.9623 28.8505 41.4132 23.8423 36.5994 27.5021" stroke="#3C2415" stroke-width="2.2281" stroke-miterlimit="10" stroke-linecap="round"/>
<path d="M32.4327 42.5C32.4327 42.5 32.5418 42.5884 32.6964 42.7809C32.8492 42.9743 33.0575 43.2691 33.207 43.7034C33.28 43.9212 33.3422 44.1763 33.3418 44.4729C33.3427 44.7658 33.2744 45.1093 33.0944 45.4128C32.9192 45.7168 32.6487 45.9646 32.3679 46.1128C32.087 46.2722 31.7916 46.3634 31.5069 46.4182C31.2196 46.4711 30.9383 46.4932 30.6669 46.4868C30.3942 46.4891 30.1336 46.4559 29.8832 46.4228C29.3855 46.3422 28.9359 46.2178 28.5619 46.0742C28.187 45.9383 27.8851 45.7909 27.6785 45.6749C27.4707 45.562 27.356 45.4851 27.356 45.4851C27.356 45.4851 27.4917 45.464 27.7223 45.4497C27.9525 45.4391 28.2789 45.4197 28.6615 45.4193C29.0364 45.4138 29.4744 45.4073 29.9433 45.4004C30.1718 45.3907 30.4067 45.3847 30.6377 45.3668C30.8692 45.3484 31.1002 45.3272 31.3162 45.2816C31.7546 45.2047 32.1252 45.0509 32.3185 44.8206C32.525 44.5986 32.601 44.2067 32.6028 43.8323C32.5955 43.4593 32.5456 43.1194 32.5044 42.8818C32.4589 42.6386 32.4327 42.5 32.4327 42.5Z" fill="#CDA187"/>
<path d="M24.5111 50.5547C25.6791 52.8592 27.767 54.401 30.155 54.401C32.5431 54.401 34.6301 52.8596 35.7985 50.5547H24.5111Z" fill="white"/>
<path d="M24.5111 50.5575L25.0376 51.3142C25.2304 51.5486 25.4305 51.7706 25.6225 51.9948C25.8337 52.203 26.0562 52.3987 26.2696 52.599C26.5002 52.7782 26.7445 52.9352 26.9747 53.1088C27.2229 53.2525 27.4784 53.3792 27.7266 53.5155L28.5172 53.8033L29.3314 53.9705L30.1555 54.0055C30.1009 54.0078 30.1421 54.006 30.131 54.006L30.1344 54.0055L30.1413 54.0046L30.155 54.0032L30.1821 54L30.2366 53.9935L30.3457 53.9811L30.5638 53.959L31.0006 53.9143L31.7649 53.7052L32.519 53.369C32.753 53.218 32.9944 53.0835 33.2263 52.9306C33.4418 52.7501 33.6647 52.5806 33.8751 52.3946C34.0679 52.1855 34.2689 51.9856 34.4566 51.7724L34.9697 51.0811L35.4116 50.3319L35.7981 51.0291C33.9168 51.0213 32.0359 50.9812 30.1546 50.9084C29.2137 50.8767 28.2733 50.826 27.3329 50.7721C26.392 50.715 25.4515 50.6501 24.5111 50.5575ZM24.5111 50.5575C25.4515 50.465 26.3924 50.4 27.3329 50.3429C28.2733 50.289 29.2142 50.2384 30.1546 50.2066C32.0359 50.1338 33.9168 50.0933 35.7981 50.0859H35.8191C36.0549 50.085 36.2468 50.289 36.2477 50.5419C36.2481 50.6294 36.2241 50.7132 36.1846 50.7827L35.6993 51.631C35.5147 51.8972 35.3163 52.1542 35.12 52.4116C34.9053 52.6515 34.6743 52.8767 34.4514 53.1084C34.2097 53.3179 33.9529 53.51 33.7034 53.7094C33.4358 53.8807 33.1589 54.0377 32.884 54.1966C32.5929 54.3196 32.297 54.4301 32.0046 54.5448C31.6898 54.6189 31.372 54.6889 31.0585 54.7529L30.1546 54.8027L29.2292 54.6972L28.3326 54.4467C28.0483 54.3196 27.7661 54.1874 27.4896 54.0506C27.2298 53.877 26.9661 53.7121 26.7149 53.5316C26.4804 53.3248 26.2447 53.1204 26.0231 52.9039C25.8204 52.664 25.6113 52.4346 25.4198 52.1892C25.2484 51.9225 25.0732 51.6619 24.9122 51.3984L24.5111 50.5575Z" fill="#DEAD91"/>
<path d="M20.2916 36.2636C21.3826 36.2636 22.267 35.164 22.267 33.8076C22.267 32.4511 21.3826 31.3516 20.2916 31.3516C19.2006 31.3516 18.3163 32.4511 18.3163 33.8076C18.3163 35.164 19.2006 36.2636 20.2916 36.2636Z" fill="#3C2415"/>
<path d="M18.7701 33.8107C19.2786 33.8107 19.6908 33.3686 19.6908 32.8233C19.6908 32.278 19.2786 31.8359 18.7701 31.8359C18.2617 31.8359 17.8495 32.278 17.8495 32.8233C17.8495 33.3686 18.2617 33.8107 18.7701 33.8107Z" fill="white"/>
<path d="M19.2073 34.7258C19.4485 34.7258 19.644 34.5161 19.644 34.2574C19.644 33.9988 19.4485 33.7891 19.2073 33.7891C18.9661 33.7891 18.7706 33.9988 18.7706 34.2574C18.7706 34.5161 18.9661 34.7258 19.2073 34.7258Z" fill="white"/>
<path d="M30.1597 0.0234375C27.9319 0.13028 43.9627 -0.741039 47.5879 4.55503C55.3176 13.5975 50.487 35.9331 50.487 35.9331L49.5607 36.2674L49.0604 40.0898H48.1006C48.1006 40.0898 49.9794 27.5087 46.3198 23.8203C46.3198 23.8203 47.6081 12.9214 43.3139 12.1537C43.3139 12.1537 34.0709 11.0526 29.9613 11.5781L30.1597 0.0234375Z" fill="#56362B"/>
<path d="M39.7892 36.2636C40.8801 36.2636 41.7645 35.164 41.7645 33.8076C41.7645 32.4511 40.8801 31.3516 39.7892 31.3516C38.6982 31.3516 37.8138 32.4511 37.8138 33.8076C37.8138 35.164 38.6982 36.2636 39.7892 36.2636Z" fill="#3C2415"/>
<path d="M41.3106 33.8098C41.8188 33.8098 42.2309 33.3679 42.2309 32.8228C42.2309 32.2778 41.8188 31.8359 41.3106 31.8359C40.8024 31.8359 40.3904 32.2778 40.3904 32.8228C40.3904 33.3679 40.8024 33.8098 41.3106 33.8098Z" fill="white"/>
<path d="M40.8739 34.7258C41.1151 34.7258 41.3106 34.5161 41.3106 34.2574C41.3106 33.9988 41.1151 33.7891 40.8739 33.7891C40.6327 33.7891 40.4372 33.9988 40.4372 34.2574C40.4372 34.5161 40.6327 34.7258 40.8739 34.7258Z" fill="white"/>
<path d="M30.3676 0.0326743C25.9364 -0.187919 18.1071 0.626294 12.8505 5.01558C5.12088 14.058 9.66806 35.9331 9.66806 35.9331L10.5943 36.2675L11.0946 40.0898H12.0544C12.0544 40.0898 10.1756 27.5087 13.8352 23.8203C13.8352 23.8203 13.0669 13.9383 17.1095 12.6719C17.1095 12.6719 25.4833 10.7146 29.9622 11.5781C29.9622 11.5781 29.8626 11.597 29.9622 11.5781L30.3676 0.0326743Z" fill="#56362B"/>
</svg>
